<svg xmlns="http://www.w3.org/2000/svg" width="655.981" height="142.318" viewBox="0 0 173.562 37.655">
  <path d="M28.788 18.277c-.559.736-1.499 1.295-2.388 1.295-.914 0-1.371-.686-1.371-1.676 0-1.016.482-2.515 3.759-2.794zm0 1.193c0 1.016.737 1.702 1.93 1.702 1.397 0 2.54-.736 2.54-1.067 0-.101-.05-.177-.152-.177-.152 0-.457.355-.94.355-.432 0-.762-.254-.762-1.32v-5.614c0-2.184-1.32-3.607-3.734-3.607-1.524 0-3.327.56-3.683.56-.355 0-.533-.179-.66-.179-.178 0-.229.051-.229.153l-.254 2.616c-.025.178.254.203.356-.026.457-.99 1.702-1.955 3.2-1.955 1.397 0 2.388.838 2.388 2.87v.508c-5.309.254-6.477 2.413-6.477 4.09 0 1.574 1.016 2.793 2.59 2.793 1.118 0 2.566-.559 3.887-1.676zm15.619-6.629c0-1.778-1.016-3.099-3.023-3.099-1.194 0-2.489.508-3.835 1.143v-.94c0-.101-.051-.127-.153-.101l-4.14.838c-.152.025-.127.356.026.381l.736.152c.66.127.915.28.915.712v7.797c0 .381-.153.585-.813.788l-.508.152c-.381.127-.33.407-.203.407h5.664c.127 0 .203-.28-.229-.407l-.482-.152c-.66-.203-.813-.407-.813-.788v-7.823c.787-.457 1.702-.813 2.54-.813 1.092 0 1.702.66 1.702 2.007v6.63c0 .38-.153.558-.813.787l-.508.178c-.381.127-.33.38-.203.38h5.664c.127 0 .203-.279-.229-.406l-.482-.152c-.66-.203-.813-.407-.813-.788zm7.973 5.436c-.559.736-1.498 1.295-2.387 1.295-.915 0-1.372-.686-1.372-1.676 0-1.016.483-2.515 3.76-2.794zm0 1.193c0 1.016.737 1.702 1.93 1.702 1.398 0 2.54-.736 2.54-1.067 0-.101-.05-.177-.152-.177-.152 0-.457.355-.94.355-.431 0-.762-.254-.762-1.32v-5.614c0-2.184-1.32-3.607-3.733-3.607-1.524 0-3.328.56-3.683.56-.356 0-.534-.179-.66-.179-.179 0-.23.051-.23.153l-.253 2.616c-.026.178.254.203.355-.026.457-.99 1.702-1.955 3.2-1.955 1.398 0 2.388.838 2.388 2.87v.508c-5.308.254-6.477 2.413-6.477 4.09 0 1.574 1.016 2.793 2.591 2.793 1.118 0 2.565-.559 3.886-1.676zm8.761-16.586c0-.101-.05-.127-.152-.101l-4.14.838c-.153.025-.127.355.025.38l.737.153c.66.127.914.28.914.711v14.86c0 .38-.152.584-.813.787l-.508.152c-.38.127-.33.407-.203.407h5.664c.127 0 .203-.28-.228-.407l-.483-.152c-.66-.203-.813-.407-.813-.788zm5.434 16.13c.406 1.066.482 2.133-.026 3.073-.838 1.498-1.575 2.159-2.54 2.159-.584 0-1.016-.28-1.346-.762-.178-.254-.432-.204-.483.05l-.533 2.54c-.025.127-.025.28.229.33.33.077.584.077.838.077 2.184 0 3.86-1.727 5.486-5.995l3.556-9.296c.153-.38.356-.584 1.067-.787l.457-.153c.407-.127.381-.406.254-.406h-4.038c-.127 0-.229.28.177.406l.534.153c.61.203.711.406.559.787l-2.16 5.74c-.076.204-.253.23-.33 0l-1.98-5.74c-.128-.38-.052-.584.533-.787l.533-.153c.406-.127.305-.406.178-.406h-5.791c-.127 0-.153.28.254.406l.457.153c.711.203.914.406 1.067.787zm8.176-.483c0 1.574.94 2.641 2.515 2.641 1.448 0 2.692-.762 2.692-1.117 0-.102-.05-.178-.152-.178-.152 0-.381.152-.94.152-.838 0-1.524-.38-1.524-1.956v-7.34h2.032c.127 0 .178-.05.178-.178v-.533c0-.127-.05-.178-.178-.178h-2.032v-2.49c0-.177-.178-.304-.355-.304a.402.402 0 0 0-.381.254c-.458 1.067-.712 2.49-3.125 2.743-.38.05-.38.686 0 .686h1.27zm9.498-8.586c0-.101-.051-.127-.153-.101l-4.114.838c-.153.025-.127.356.025.381l.737.152c.66.127.914.28.914.712v7.797c0 .381-.152.585-.813.788l-.508.152c-.38.127-.33.407-.203.407h5.639c.127 0 .203-.28-.203-.407l-.508-.152c-.66-.203-.813-.407-.813-.788zm-3.277-4.089c-.152.152-.178.305 0 .457l1.575 1.499c.152.152.28.152.432 0l1.524-1.499c.203-.178.178-.28 0-.457l-1.524-1.499c-.153-.152-.28-.152-.432 0zm11.174 4.902c1.55 0 2.54 1.042 3.15 2.108.152.23.406.102.38-.076l-.253-2.514c0-.102-.076-.153-.229-.153-.127 0-.305.178-.66.178-.33 0-1.296-.559-2.693-.559-3.098 0-5.842 2.743-5.842 5.842 0 3.023 2.617 5.588 5.538 5.588 2.184 0 4.013-1.422 4.52-2.362.179-.28.052-.483-.126-.483-.051 0-.127.051-.203.102-.534.432-1.397 1.245-3.1 1.245-2.742 0-3.835-2.388-3.81-4.7.026-2.158 1.093-4.216 3.328-4.216zm9.495 7.773c0 1.574.94 2.641 2.515 2.641 1.448 0 2.692-.762 2.692-1.117 0-.102-.05-.178-.152-.178-.152 0-.38.152-.94.152-.838 0-1.524-.38-1.524-1.956v-7.34h2.032c.127 0 .178-.05.178-.178v-.533c0-.127-.05-.178-.178-.178h-2.032v-2.49c0-.177-.178-.304-.355-.304a.402.402 0 0 0-.381.254c-.458 1.067-.712 2.49-3.125 2.743-.38.05-.38.686 0 .686h1.27zm11.352-.254c-.559.736-1.498 1.295-2.387 1.295-.915 0-1.372-.686-1.372-1.676 0-1.016.483-2.515 3.76-2.794zm0 1.193c0 1.016.737 1.702 1.93 1.702 1.398 0 2.54-.736 2.54-1.067 0-.101-.05-.177-.152-.177-.152 0-.457.355-.94.355-.431 0-.762-.254-.762-1.32v-5.614c0-2.184-1.32-3.607-3.733-3.607-1.524 0-3.328.56-3.683.56-.356 0-.534-.179-.66-.179-.179 0-.23.051-.23.153l-.253 2.616c-.026.178.254.203.355-.026.457-.99 1.702-1.955 3.2-1.955 1.398 0 2.388.838 2.388 2.87v.508c-5.308.254-6.477 2.413-6.477 4.09 0 1.574 1.016 2.793 2.59 2.793 1.119 0 2.566-.559 3.887-1.676zm8.761-16.586c0-.101-.05-.127-.152-.101l-4.14.838c-.153.025-.128.355.025.38l.736.153c.66.127.915.28.915.711v14.86c0 .38-.153.584-.813.787l-.508.152c-.381.127-.33.407-.203.407h5.664c.127 0 .203-.28-.229-.407l-.482-.152c-.66-.203-.813-.407-.813-.788zm8.863 9.957c0 .61-.33.838-.94.838h-3.709c.28-1.625 1.143-2.946 2.566-2.946 1.244 0 2.083.99 2.083 2.108zm2.489 1.803c.228 0 .355-.127.355-.38v-.432c0-2.16-2.082-4.09-4.673-4.09-3.023 0-5.512 2.54-5.512 5.69 0 3.175 2.642 5.74 5.588 5.74 2.184 0 4.039-1.422 4.547-2.362.177-.28.05-.483-.127-.483-.051 0-.127.051-.204.102-.584.483-1.574 1.422-3.505 1.422-2.54 0-3.734-2.743-3.683-5.207zm4.849-4.013c1.397 0 2.235.94 2.718 1.905.127.229.38.102.38-.076v-1.65c0-.636-1.726-1.068-3.123-1.068-2.312 0-4.166 1.194-4.166 3.251 0 3.531 5.436 3.48 5.436 5.715 0 .737-.585 1.575-1.982 1.575-1.65 0-2.667-1.194-3.352-2.413-.127-.228-.381-.101-.356.076l.254 2.337c.025.203.076.254.203.305 1.194.432 2.693.584 3.505.584 2.439 0 4.217-1.346 4.217-3.454 0-3.734-5.487-3.683-5.487-5.791 0-.686.61-1.296 1.753-1.296zm21.918 2.21c0-1.778-.914-3.099-2.743-3.099-1.32 0-2.743.737-4.445 1.575-.381-.965-1.169-1.575-2.362-1.575-1.245 0-2.617.711-4.217 1.524v-1.32c0-.102-.05-.128-.152-.102l-4.14.838c-.153.025-.127.356.025.381l.737.152c.66.127.914.28.914.712v7.797c0 .381-.152.585-.813.788l-.508.152c-.38.127-.33.407-.203.407h5.664c.127 0 .203-.28-.228-.407l-.483-.152c-.66-.203-.813-.407-.813-.788V12.41c.864-.71 1.905-1.32 2.845-1.32.89 0 1.397.66 1.397 2.006v6.63c0 .38-.152.558-.813.787l-.508.178c-.38.127-.33.38-.203.38h5.664c.127 0 .203-.279-.228-.406l-.483-.152c-.66-.203-.813-.407-.813-.788v-6.883c0-.203 0-.406-.025-.584.838-.584 1.88-1.169 2.845-1.169.94 0 1.473.66 1.473 2.007v6.63c0 .38-.153.558-.813.787l-.508.178c-.38.127-.33.38-.203.38h5.664c.127 0 .203-.279-.229-.406l-.482-.152c-.66-.203-.813-.407-.813-.788zm5.865-2.896c0-.101-.05-.127-.152-.101l-4.115.838c-.152.025-.127.356.026.381l.736.152c.66.127.915.28.915.712v7.797c0 .381-.153.585-.813.788l-.508.152c-.381.127-.33.407-.203.407h5.638c.127 0 .204-.28-.203-.407l-.508-.152c-.66-.203-.813-.407-.813-.788zm-3.276-4.089c-.153.152-.178.305 0 .457l1.575 1.499c.152.152.279.152.431 0l1.524-1.499c.204-.178.178-.28 0-.457l-1.524-1.499c-.152-.152-.279-.152-.431 0zm6.678 12.675c0 1.574.94 2.641 2.514 2.641 1.448 0 2.693-.762 2.693-1.117 0-.102-.051-.178-.153-.178-.152 0-.38.152-.94.152-.838 0-1.523-.38-1.523-1.956v-7.34h2.032c.127 0 .177-.05.177-.178v-.533c0-.127-.05-.178-.177-.178h-2.032v-2.49c0-.177-.178-.304-.356-.304a.402.402 0 0 0-.381.254c-.457 1.067-.711 2.49-3.124 2.743-.381.05-.381.686 0 .686h1.27zm16.38-5.69c0-1.778-1.015-3.099-3.022-3.099-1.194 0-2.49.508-3.835 1.143v-8c0-.102-.051-.128-.153-.102l-4.14.838c-.152.025-.127.355.025.38l.737.153c.66.127.914.28.914.711v14.86c0 .38-.152.584-.812.787l-.508.152c-.381.127-.33.407-.204.407h5.665c.127 0 .203-.28-.229-.407l-.483-.152c-.66-.203-.812-.407-.812-.788v-7.823c.787-.457 1.701-.813 2.54-.813 1.092 0 1.701.66 1.701 2.007v6.63c0 .38-.152.558-.812.787l-.508.178c-.381.127-.33.38-.204.38h5.665c.127 0 .203-.279-.229-.406l-.483-.152c-.66-.203-.812-.407-.812-.788z" aria-label="analytic talesmith" style="font-weight:700;font-size:25.4px;font-family:&quot;LT Soul&quot;;-inkscape-font-specification:&quot;LT Soul Bold&quot;;letter-spacing:-1.32292px;stroke-width:.264583" transform="translate(-18.22)"/>
  <path d="M24.584 32.675q-.82 0-1.57-.326-.752-.336-1.325-.958l.504-.524q.534.573 1.136.86.613.286 1.284.286.544 0 .958-.168.425-.178.662-.484.237-.316.237-.71 0-.534-.375-.82-.366-.287-1.215-.426l-.998-.158q-.997-.168-1.471-.592-.475-.425-.475-1.156 0-.573.307-1.007.306-.435.85-.672.552-.247 1.273-.247.731 0 1.433.237.71.237 1.294.682l-.435.592q-1.136-.86-2.321-.86-.494 0-.87.159-.375.148-.582.425-.208.266-.208.632 0 .484.326.74.326.257 1.077.376l.988.158q1.136.188 1.65.642.513.445.513 1.255 0 .602-.336 1.076-.336.464-.938.731-.593.257-1.373.257zm6.042-.01q-.701 0-1.274-.336-.573-.345-.909-.928-.336-.583-.336-1.304 0-.721.336-1.294.336-.583.909-.929.573-.345 1.274-.345.543 0 1.047.207.504.198.89.573l-.465.533q-.297-.316-.682-.474-.375-.168-.78-.168-.504 0-.919.257-.405.247-.652.682-.237.424-.237.958 0 .533.237.968.247.435.662.691.415.247.919.247.405 0 .76-.158.366-.158.682-.464l.454.494q-.395.375-.889.583-.494.207-1.027.207zm2.882-.089v-4.949h.73v4.95zm.365-5.897q-.198 0-.346-.148-.148-.148-.148-.356 0-.197.148-.335.148-.149.346-.149.207 0 .346.149.148.138.148.345 0 .198-.148.346-.139.148-.346.148zm4.037 5.986q-.711 0-1.294-.336-.573-.345-.918-.928-.336-.583-.336-1.304 0-.711.326-1.284.326-.583.879-.919.553-.346 1.235-.346.661 0 1.185.346.533.336.84.919.316.573.316 1.284v.227h-4.06q.06.484.306.87.257.385.662.612.405.217.889.217.385 0 .75-.118.366-.119.613-.336l.454.484q-.415.306-.869.464-.444.148-.978.148zm-1.807-2.924h3.309q-.06-.444-.297-.79-.227-.356-.573-.553-.345-.208-.76-.208-.425 0-.78.198-.356.198-.593.553-.237.346-.306.8zm5.163 2.835v-4.949h.73v.583q.584-.681 1.561-.681.563 0 .988.247.435.237.672.671.247.425.247.998v3.131h-.721v-2.983q0-.662-.376-1.037-.365-.385-1.007-.385-.445 0-.79.197-.346.198-.573.563v3.645zm7.82.09q-.701 0-1.274-.337-.573-.345-.909-.928-.336-.583-.336-1.304 0-.721.336-1.294.336-.583.909-.929.573-.345 1.274-.345.543 0 1.047.207.504.198.89.573l-.465.533q-.296-.316-.682-.474-.375-.168-.78-.168-.504 0-.919.257-.405.247-.652.682-.237.424-.237.958 0 .533.237.968.247.435.662.691.415.247.919.247.405 0 .76-.158.366-.158.682-.464l.454.494q-.395.375-.889.583-.493.207-1.027.207zm5.055 0q-.711 0-1.294-.337-.573-.345-.919-.928-.336-.583-.336-1.304 0-.711.326-1.284.326-.583.88-.919.553-.346 1.234-.346.662 0 1.185.346.534.336.84.919.316.573.316 1.284v.227h-4.06q.06.484.307.87.256.385.661.612.405.217.89.217.385 0 .75-.118.366-.119.613-.336l.454.484q-.415.306-.87.464-.444.148-.977.148zm-1.808-2.925h3.31q-.06-.444-.297-.79-.227-.356-.573-.553-.346-.208-.76-.208-.425 0-.781.198-.356.198-.593.553-.237.346-.306.8zm8.302 2.835-1.393-4.949h.721l1.067 3.952 1.235-3.952h.651l1.225 3.952 1.077-3.952h.691l-1.402 4.95h-.702l-1.224-3.962-1.235 3.961zm6.14 0v-4.949h.732v4.95zm.366-5.897q-.197 0-.345-.148-.149-.148-.149-.356 0-.197.149-.335.148-.149.345-.149.208 0 .346.149.148.138.148.345 0 .198-.148.346-.138.148-.346.148zm3.662 5.996q-.642 0-.988-.306-.345-.306-.345-.89v-3.23h-1.067v-.622h1.067v-1.254l.72-.188v1.442h1.492v.623h-1.491v3.042q0 .395.178.573.177.168.582.168.208 0 .366-.03.168-.03.355-.098v.642q-.187.069-.424.098-.227.03-.445.03zm1.765-.099v-6.914l.731-.168v2.716q.583-.681 1.561-.681.563 0 .988.247.435.237.672.671.247.425.247.998v3.131h-.722v-2.983q0-.662-.375-1.037-.365-.385-1.007-.385-.445 0-.79.197-.346.198-.574.563v3.645zm9.32.09q-.544 0-.959-.189-.405-.187-.642-.523-.227-.336-.227-.78 0-.702.533-1.107.534-.405 1.443-.405.8 0 1.452.336v-.652q0-.592-.336-.889-.336-.306-.978-.306-.366 0-.74.109-.366.098-.81.326l-.277-.563q.533-.257.987-.376.455-.118.91-.118.937 0 1.441.444.514.445.514 1.274v3.33h-.711v-.485q-.336.287-.741.435-.395.138-.86.138zm-1.127-1.512q0 .415.346.681.356.257.909.257.444 0 .81-.138.365-.138.662-.435v-.928q-.307-.208-.652-.297-.346-.098-.78-.098-.593 0-.949.266-.346.257-.346.692zm9.379 1.521q-.82 0-1.57-.326-.752-.336-1.325-.958l.504-.524q.534.573 1.136.86.613.286 1.284.286.544 0 .958-.168.425-.178.662-.484.237-.316.237-.711 0-.533-.375-.82-.366-.286-1.215-.425l-.998-.158q-.997-.168-1.471-.592-.475-.425-.475-1.156 0-.573.307-1.008.306-.434.85-.671.552-.247 1.273-.247.731 0 1.433.237.71.237 1.294.681l-.435.593q-1.136-.86-2.321-.86-.494 0-.87.159-.375.148-.582.425-.208.266-.208.632 0 .484.326.74.326.257 1.077.376l.988.158q1.136.188 1.65.642.513.445.513 1.255 0 .602-.336 1.076-.336.464-.938.731-.593.257-1.373.257zm6.052 0q-.701 0-1.284-.336-.573-.346-.909-.928-.336-.583-.336-1.304 0-.721.336-1.304.336-.583.909-.919.583-.345 1.284-.345.711 0 1.284.345.573.336.909.919.336.583.336 1.304 0 .72-.336 1.304-.336.582-.909.928-.573.336-1.284.336zm0-.652q.504 0 .909-.257.415-.257.652-.691.247-.435.247-.968 0-.544-.247-.968-.237-.435-.652-.692-.405-.257-.91-.257-.503 0-.918.257-.405.257-.652.692-.237.424-.237.968 0 .533.237.968.247.434.652.691.415.257.919.257zm5.548.652q-.563 0-.997-.237-.435-.247-.682-.672-.237-.434-.237-1.007v-3.132h.721v2.984q0 .661.376 1.047.375.375 1.007.375.445 0 .79-.198.356-.207.573-.573v-3.635h.731v4.95h-.73v-.574q-.584.672-1.552.672zm3.633-.099v-6.914l.73-.168v7.082zm1.893 1.353.573-2.084h.79l-.79 2.084zm5.892-2.044h1.56q.603 0 1.117-.208.513-.207.898-.582.386-.376.593-.88.217-.503.217-1.096 0-.593-.217-1.096-.207-.504-.593-.88-.385-.375-.898-.582-.514-.208-1.117-.208h-1.56zm-.76.691v-6.914h2.28q.791 0 1.453.257.662.256 1.146.72.494.465.76 1.097.277.632.277 1.383 0 .75-.267 1.383-.266.632-.76 1.096-.484.465-1.156.721-.662.257-1.452.257zm8.54.09q-.543 0-.958-.189-.405-.187-.642-.523-.227-.336-.227-.78 0-.702.534-1.107.533-.405 1.442-.405.8 0 1.452.336v-.652q0-.592-.336-.889-.336-.306-.978-.306-.365 0-.74.109-.366.098-.81.326l-.277-.563q.533-.257.987-.376.455-.118.91-.118.938 0 1.441.444.514.445.514 1.274v3.33h-.711v-.485q-.336.287-.741.435-.395.138-.86.138zm-1.125-1.512q0 .415.345.681.356.257.909.257.444 0 .81-.138.365-.138.662-.435v-.928q-.306-.208-.652-.297-.346-.098-.78-.098-.593 0-.949.266-.345.257-.345.692zm6.565 1.521q-.642 0-.987-.306-.346-.306-.346-.89v-3.23h-1.067v-.622h1.067v-1.254l.721-.188v1.442h1.492v.623h-1.492v3.042q0 .395.178.573.178.168.583.168.207 0 .365-.03.168-.03.356-.098v.642q-.188.069-.425.098-.227.03-.445.03zm3.326-.01q-.543 0-.958-.188-.405-.187-.642-.523-.227-.336-.227-.78 0-.702.533-1.107.534-.405 1.443-.405.8 0 1.452.336v-.652q0-.593-.336-.889-.336-.306-.978-.306-.366 0-.741.109-.365.098-.81.326l-.277-.563q.534-.257.988-.376.455-.118.909-.118.938 0 1.442.444.514.445.514 1.274v3.33h-.711v-.485q-.336.287-.741.435-.395.138-.86.138zm-1.126-1.511q0 .415.346.681.356.257.909.257.444 0 .81-.138.365-.138.662-.435v-.928q-.307-.208-.652-.297-.346-.098-.78-.098-.593 0-.949.266-.346.257-.346.692zm7.907 1.422-1.393-4.949h.721l1.067 3.952 1.235-3.952h.652l1.224 3.952 1.077-3.952h.692l-1.403 4.95h-.701l-1.225-3.962-1.235 3.961zm6.141 0v-4.949h.73v4.95zm.365-5.897q-.197 0-.345-.148-.148-.148-.148-.356 0-.197.148-.335.148-.149.345-.149.208 0 .346.149.148.138.148.345 0 .198-.148.346-.138.148-.346.148zm3.662 5.996q-.642 0-.987-.306-.346-.306-.346-.89v-3.23h-1.067v-.622h1.067v-1.254l.72-.188v1.442h1.492v.623h-1.491v3.042q0 .395.178.573.177.168.582.168.208 0 .366-.03.168-.03.356-.099v.643q-.188.069-.425.098-.227.03-.445.03zm1.766-.099v-6.914l.73-.168v2.716q.583-.681 1.561-.681.563 0 .988.247.435.237.672.671.247.425.247.998v3.131h-.721v-2.983q0-.662-.376-1.037-.365-.385-1.007-.385-.445 0-.79.197-.346.198-.573.563v3.645zm9.319.09q-.544 0-.959-.189-.405-.187-.642-.523-.227-.336-.227-.78 0-.702.534-1.107.533-.405 1.442-.405.8 0 1.452.336v-.652q0-.593-.336-.889-.336-.306-.978-.306-.365 0-.74.109-.366.098-.81.326l-.277-.563q.533-.257.987-.376.455-.118.91-.118.938 0 1.441.444.514.445.514 1.274v3.33h-.711v-.485q-.336.287-.741.435-.395.138-.86.138zm-1.127-1.512q0 .415.346.681.356.257.909.257.444 0 .81-.138.365-.138.662-.435v-.928q-.306-.208-.652-.297-.346-.098-.78-.098-.593 0-.949.266-.346.257-.346.692zm9.379 1.521q-.82 0-1.57-.326-.752-.336-1.324-.958l.503-.524q.534.573 1.136.86.613.286 1.284.286.544 0 .959-.168.424-.178.661-.484.237-.316.237-.711 0-.533-.375-.82-.365-.286-1.215-.425l-.998-.158q-.997-.168-1.471-.592-.474-.425-.474-1.156 0-.573.306-1.008.306-.434.85-.671.552-.247 1.273-.247.731 0 1.433.237.71.237 1.294.681l-.435.593q-1.136-.86-2.321-.86-.494 0-.87.159-.375.148-.582.425-.208.266-.208.632 0 .484.326.74.326.257 1.077.376l.988.158q1.136.188 1.65.642.513.445.513 1.255 0 .602-.336 1.076-.336.464-.938.731-.593.257-1.373.257zm5.45 0q-.643 0-.988-.306-.346-.306-.346-.89v-3.23h-1.067v-.622h1.067v-1.254l.721-.188v1.442h1.492v.623h-1.492v3.042q0 .395.178.573.178.168.583.168.207 0 .365-.03.168-.03.356-.099v.643q-.188.069-.425.098-.227.03-.445.03zm3.968 0q-.702 0-1.285-.336-.573-.346-.908-.928-.336-.583-.336-1.304 0-.721.336-1.304.335-.583.908-.919.583-.345 1.285-.345.71 0 1.284.345.573.336.908.919.336.583.336 1.304 0 .72-.336 1.304-.335.582-.908.928-.573.336-1.284.336zm0-.652q.503 0 .908-.257.415-.257.652-.691.247-.435.247-.968 0-.544-.247-.968-.237-.435-.652-.692-.405-.257-.908-.257-.504 0-.92.257-.404.257-.651.692-.237.424-.237.968 0 .533.237.968.247.434.652.691.415.257.919.257zm3.651.553v-4.949h.731v.702q.228-.385.573-.593.356-.217.81-.217.257 0 .465.069v.672q-.129-.05-.257-.07-.129-.02-.257-.02-.454 0-.8.267-.336.257-.534.751v3.388zm3.83 2.114q-.138 0-.266-.02-.119-.01-.198-.03v-.661q.168.04.415.04.652 0 .988-.771l.296-.682-2.015-4.939h.81l1.6 4.06 1.729-4.06h.79l-2.47 5.72q-.207.474-.444.77-.237.296-.543.435-.297.138-.692.138z" aria-label="Science with a Soul, Data with a Story" style="font-size:9.87778px;font-family:&quot;Red Hat Display&quot;;-inkscape-font-specification:&quot;Red Hat Display&quot;;letter-spacing:.105833px;stroke-width:.264583" transform="translate(-18.22)"/>
</svg>
