<?xml version="1.0" encoding="UTF-8" standalone="no"?>
<!-- Created with Inkscape (http://www.inkscape.org/) -->

<svg
   width="173.56171mm"
   height="37.654911mm"
   viewBox="0 0 173.56171 37.654911"
   version="1.1"
   id="svg1"
   inkscape:version="1.3.2 (091e20e, 2023-11-25, custom)"
   sodipodi:docname="main-logo-black-transparent.svg"
   xmlns:inkscape="http://www.inkscape.org/namespaces/inkscape"
   xmlns:sodipodi="http://sodipodi.sourceforge.net/DTD/sodipodi-0.dtd"
   xmlns="http://www.w3.org/2000/svg"
   xmlns:svg="http://www.w3.org/2000/svg">
  <sodipodi:namedview
     id="namedview1"
     pagecolor="#ffffff"
     bordercolor="#000000"
     borderopacity="0.25"
     inkscape:showpageshadow="2"
     inkscape:pageopacity="0.0"
     inkscape:pagecheckerboard="0"
     inkscape:deskcolor="#d1d1d1"
     inkscape:document-units="mm"
     inkscape:zoom="1.0610059"
     inkscape:cx="346.36942"
     inkscape:cy="485.38844"
     inkscape:window-width="1256"
     inkscape:window-height="1378"
     inkscape:window-x="-7"
     inkscape:window-y="0"
     inkscape:window-maximized="0"
     inkscape:current-layer="layer1" />
  <defs
     id="defs1" />
  <g
     inkscape:label="Main Text"
     inkscape:groupmode="layer"
     id="layer1"
     transform="translate(-18.219147)">
    <path
       style="font-weight:bold;font-size:25.4px;font-family:'LT Soul';-inkscape-font-specification:'LT Soul Bold';letter-spacing:-1.32292px;stroke-width:0.264583"
       d="m 28.787944,18.276662 c -0.5588,0.7366 -1.4986,1.2954 -2.3876,1.2954 -0.9144,0 -1.3716,-0.6858 -1.3716,-1.6764 0,-1.016 0.4826,-2.5146 3.7592,-2.794 z m 0,1.1938 c 0,1.016 0.7366,1.7018 1.9304,1.7018 1.397,0 2.54,-0.7366 2.54,-1.0668 0,-0.1016 -0.0508,-0.1778 -0.1524,-0.1778 -0.1524,0 -0.4572,0.3556 -0.9398,0.3556 -0.4318,0 -0.762,-0.254 -0.762,-1.3208 v -5.6134 c 0,-2.1844 -1.3208,-3.6068003 -3.7338,-3.6068003 -1.524,0 -3.3274,0.5588003 -3.683,0.5588003 -0.3556,0 -0.5334,-0.1778 -0.6604,-0.1778 -0.1778,0 -0.2286,0.0508 -0.2286,0.1524 l -0.254,2.6162 c -0.0254,0.1778 0.254,0.2032 0.3556,-0.0254 0.4572,-0.9906 1.7018,-1.9558 3.2004,-1.9558 1.397,0 2.3876,0.8382 2.3876,2.8702 v 0.508 c -5.3086,0.254 -6.477,2.413 -6.477,4.0894 0,1.5748 1.016,2.794 2.5908,2.794 1.1176,0 2.5654,-0.5588 3.8862,-1.6764 z m 15.618877,-6.6294 c 0,-1.778 -1.016,-3.0988003 -3.0226,-3.0988003 -1.1938,0 -2.4892,0.5080003 -3.8354,1.1430003 V 9.9454617 c 0,-0.1016 -0.0508,-0.127 -0.1524,-0.1016 l -4.1402,0.8382003 c -0.1524,0.0254 -0.127,0.3556 0.0254,0.381 l 0.7366,0.1524 c 0.6604,0.127 0.9144,0.2794 0.9144,0.7112 v 7.7978 c 0,0.381 -0.1524,0.5842 -0.8128,0.7874 l -0.508,0.1524 c -0.381,0.127 -0.3302,0.4064 -0.2032,0.4064 h 5.6642 c 0.127,0 0.2032,-0.2794 -0.2286,-0.4064 l -0.4826,-0.1524 c -0.6604,-0.2032 -0.8128,-0.4064 -0.8128,-0.7874 v -7.8232 c 0.7874,-0.4572 1.7018,-0.8128 2.54,-0.8128 1.0922,0 1.7018,0.6604 1.7018,2.0066 v 6.6294 c 0,0.381 -0.1524,0.5588 -0.8128,0.7874 l -0.508,0.1778 c -0.381,0.127 -0.3302,0.381 -0.2032,0.381 h 5.6642 c 0.127,0 0.2032,-0.2794 -0.2286,-0.4064 l -0.4826,-0.1524 c -0.6604,-0.2032 -0.8128,-0.4064 -0.8128,-0.7874 z m 7.973458,5.4356 c -0.5588,0.7366 -1.4986,1.2954 -2.3876,1.2954 -0.9144,0 -1.3716,-0.6858 -1.3716,-1.6764 0,-1.016 0.4826,-2.5146 3.7592,-2.794 z m 0,1.1938 c 0,1.016 0.736599,1.7018 1.930399,1.7018 1.397,0 2.54,-0.7366 2.54,-1.0668 0,-0.1016 -0.0508,-0.1778 -0.1524,-0.1778 -0.1524,0 -0.4572,0.3556 -0.9398,0.3556 -0.4318,0 -0.762,-0.254 -0.762,-1.3208 v -5.6134 c 0,-2.1844 -1.3208,-3.6068003 -3.733799,-3.6068003 -1.524,0 -3.3274,0.5588003 -3.683,0.5588003 -0.3556,0 -0.5334,-0.1778 -0.6604,-0.1778 -0.1778,0 -0.2286,0.0508 -0.2286,0.1524 l -0.254,2.6162 c -0.0254,0.1778 0.254,0.2032 0.3556,-0.0254 0.4572,-0.9906 1.7018,-1.9558 3.2004,-1.9558 1.397,0 2.3876,0.8382 2.3876,2.8702 v 0.508 c -5.3086,0.254 -6.477,2.413 -6.477,4.0894 0,1.5748 1.016,2.794 2.5908,2.794 1.1176,0 2.5654,-0.5588 3.8862,-1.6764 z M 61.141154,2.8842618 c 0,-0.1016 -0.0508,-0.127 -0.1524,-0.1016 l -4.1402,0.8382 c -0.1524,0.0254 -0.127,0.3556 0.0254,0.381 l 0.7366,0.1524 c 0.6604,0.127 0.9144,0.2794 0.9144,0.7112 V 19.724462 c 0,0.381 -0.1524,0.5842 -0.8128,0.7874 l -0.508,0.1524 c -0.381,0.127 -0.3302,0.4064 -0.2032,0.4064 h 5.6642 c 0.127,0 0.2032,-0.2794 -0.2286,-0.4064 l -0.4826,-0.1524 c -0.6604,-0.2032 -0.8128,-0.4064 -0.8128,-0.7874 z m 5.433515,16.1290002 c 0.4064,1.0668 0.4826,2.1336 -0.0254,3.0734 -0.8382,1.4986 -1.5748,2.158999 -2.54,2.158999 -0.5842,0 -1.016,-0.279399 -1.3462,-0.761999 -0.1778,-0.254 -0.4318,-0.2032 -0.4826,0.0508 l -0.5334,2.539999 c -0.0254,0.127 -0.0254,0.2794 0.2286,0.3302 0.3302,0.0762 0.5842,0.0762 0.8382,0.0762 2.1844,0 3.8608,-1.7272 5.4864,-5.994399 l 3.556,-9.2964 c 0.1524,-0.381 0.3556,-0.5842 1.0668,-0.7874 l 0.4572,-0.1524 c 0.4064,-0.127 0.381,-0.4064003 0.254,-0.4064003 h -4.0386 c -0.127,0 -0.2286,0.2794003 0.1778,0.4064003 l 0.5334,0.1524 c 0.6096,0.2032 0.7112,0.4064 0.5588,0.7874 l -2.159,5.7404 c -0.0762,0.2032 -0.254,0.2286 -0.3302,0 l -1.9812,-5.7404 c -0.127,-0.381 -0.0508,-0.5842 0.5334,-0.7874 l 0.5334,-0.1524 c 0.4064,-0.127 0.3048,-0.4064003 0.1778,-0.4064003 h -5.7912 c -0.127,0 -0.1524,0.2794003 0.254,0.4064003 l 0.4572,0.1524 c 0.7112,0.2032 0.9144,0.4064 1.0668,0.7874 z m 8.176688,-0.4826 c 0,1.5748 0.9398,2.6416 2.5146,2.6416 1.4478,0 2.6924,-0.762 2.6924,-1.1176 0,-0.1016 -0.0508,-0.1778 -0.1524,-0.1778 -0.1524,0 -0.381,0.1524 -0.9398,0.1524 -0.8382,0 -1.524,-0.381 -1.524,-1.9558 v -7.3406 h 2.032 c 0.127,0 0.1778,-0.0508 0.1778,-0.1778 v -0.5334 c 0,-0.1270003 -0.0508,-0.1778003 -0.1778,-0.1778003 h -2.032 V 7.3546618 c 0,-0.1778 -0.1778,-0.3048 -0.3556,-0.3048 -0.1524,0 -0.3048,0.0762 -0.381,0.254 -0.4572,1.0667999 -0.7112,2.4891999 -3.1242,2.7432002 -0.381,0.0508 -0.381,0.6858 0,0.6858 h 1.27 z M 84.24883,9.9454617 c 0,-0.1016 -0.0508,-0.127 -0.1524,-0.1016 l -4.1148,0.8382003 c -0.1524,0.0254 -0.127,0.3556 0.0254,0.381 l 0.7366,0.1524 c 0.6604,0.127 0.9144,0.2794 0.9144,0.7112 v 7.7978 c 0,0.381 -0.1524,0.5842 -0.8128,0.7874 l -0.508,0.1524 c -0.381,0.127 -0.3302,0.4064 -0.2032,0.4064 h 5.6388 c 0.127,0 0.2032,-0.2794 -0.2032,-0.4064 l -0.508,-0.1524 c -0.6604,-0.2032 -0.8128,-0.4064 -0.8128,-0.7874 z m -3.2766,-4.0893999 c -0.1524,0.1524 -0.1778,0.3048 0,0.4572 l 1.5748,1.4985999 c 0.1524,0.1524 0.2794,0.1524 0.4318,0 l 1.524,-1.4985999 c 0.2032,-0.1778 0.1778,-0.2794 0,-0.4572 l -1.524,-1.4986 c -0.1524,-0.1524 -0.2794,-0.1524 -0.4318,0 z m 11.173875,4.9022002 c 1.5494,0 2.54,1.0414 3.1496,2.1082 0.1524,0.2286 0.4064,0.1016 0.381,-0.0762 l -0.254,-2.5146 c 0,-0.1016 -0.0762,-0.1524 -0.2286,-0.1524 -0.127,0 -0.3048,0.1778 -0.6604,0.1778 -0.3302,0 -1.2954,-0.5588003 -2.6924,-0.5588003 -3.0988,0 -5.842,2.7432003 -5.842,5.8420003 0,3.0226 2.6162,5.588 5.5372,5.588 2.1844,0 4.0132,-1.4224 4.5212,-2.3622 0.1778,-0.2794 0.0508,-0.4826 -0.127,-0.4826 -0.0508,0 -0.127,0.0508 -0.2032,0.1016 -0.5334,0.4318 -1.397,1.2446 -3.0988,1.2446 -2.7432,0 -3.8354,-2.3876 -3.81,-4.699 0.0254,-2.159 1.0922,-4.2164 3.3274,-4.2164 z m 9.495375,7.7724 c 0,1.5748 0.9398,2.6416 2.5146,2.6416 1.4478,0 2.6924,-0.762 2.6924,-1.1176 0,-0.1016 -0.0508,-0.1778 -0.1524,-0.1778 -0.1524,0 -0.381,0.1524 -0.9398,0.1524 -0.8382,0 -1.524,-0.381 -1.524,-1.9558 v -7.3406 h 2.032 c 0.127,0 0.1778,-0.0508 0.1778,-0.1778 v -0.5334 c 0,-0.1270003 -0.0508,-0.1778003 -0.1778,-0.1778003 h -2.032 V 7.3546618 c 0,-0.1778 -0.1778,-0.3048 -0.3556,-0.3048 -0.1524,0 -0.3048,0.0762 -0.381,0.254 -0.4572,1.0667999 -0.7112,2.4891999 -3.1242,2.7432002 -0.381002,0.0508 -0.381002,0.6858 0,0.6858 h 1.27 z m 11.35167,-0.254 c -0.5588,0.7366 -1.4986,1.2954 -2.3876,1.2954 -0.9144,0 -1.3716,-0.6858 -1.3716,-1.6764 0,-1.016 0.4826,-2.5146 3.7592,-2.794 z m 0,1.1938 c 0,1.016 0.7366,1.7018 1.9304,1.7018 1.397,0 2.54,-0.7366 2.54,-1.0668 0,-0.1016 -0.0508,-0.1778 -0.1524,-0.1778 -0.1524,0 -0.4572,0.3556 -0.9398,0.3556 -0.4318,0 -0.762,-0.254 -0.762,-1.3208 v -5.6134 c 0,-2.1844 -1.3208,-3.6068003 -3.7338,-3.6068003 -1.524,0 -3.3274,0.5588003 -3.683,0.5588003 -0.3556,0 -0.5334,-0.1778 -0.6604,-0.1778 -0.1778,0 -0.2286,0.0508 -0.2286,0.1524 l -0.254,2.6162 c -0.0254,0.1778 0.254,0.2032 0.3556,-0.0254 0.4572,-0.9906 1.7018,-1.9558 3.2004,-1.9558 1.397,0 2.3876,0.8382 2.3876,2.8702 v 0.508 c -5.3086,0.254 -6.477,2.413 -6.477,4.0894 0,1.5748 1.016,2.794 2.5908,2.794 1.1176,0 2.5654,-0.5588 3.8862,-1.6764 z m 8.76088,-16.5862002 c 0,-0.1016 -0.0508,-0.127 -0.1524,-0.1016 l -4.1402,0.8382 c -0.1524,0.0254 -0.127,0.3556 0.0254,0.381 l 0.7366,0.1524 c 0.6604,0.127 0.9144,0.2794 0.9144,0.7112 V 19.724462 c 0,0.381 -0.1524,0.5842 -0.8128,0.7874 l -0.508,0.1524 c -0.381,0.127 -0.3302,0.4064 -0.2032,0.4064 h 5.6642 c 0.127,0 0.2032,-0.2794 -0.2286,-0.4064 l -0.4826,-0.1524 c -0.6604,-0.2032 -0.8128,-0.4064 -0.8128,-0.7874 z m 8.86249,9.9568002 c 0,0.6096 -0.3302,0.8382 -0.9398,0.8382 h -3.7084 c 0.2794,-1.6256 1.143,-2.9464 2.5654,-2.9464 1.2446,0 2.0828,0.9906 2.0828,2.1082 z m 2.4892,1.8034 c 0.2286,0 0.3556,-0.127 0.3556,-0.381 v -0.4318 c 0,-2.159 -2.0828,-4.0894003 -4.6736,-4.0894003 -3.0226,0 -5.5118,2.5400003 -5.5118,5.6896003 0,3.175 2.6416,5.7404 5.588,5.7404 2.1844,0 4.0386,-1.4224 4.5466,-2.3622 0.1778,-0.2794 0.0508,-0.4826 -0.127,-0.4826 -0.0508,0 -0.127,0.0508 -0.2032,0.1016 -0.5842,0.4826 -1.5748,1.4224 -3.5052,1.4224 -2.54,0 -3.7338,-2.7432 -3.683,-5.207 z m 4.84926,-4.0132 c 1.397,0 2.2352,0.9398 2.7178,1.905 0.127,0.2286 0.381,0.1016 0.381,-0.0762 v -1.651 c 0,-0.635 -1.7272,-1.0668003 -3.1242,-1.0668003 -2.3114,0 -4.1656,1.1938003 -4.1656,3.2512003 0,3.5306 5.4356,3.4798 5.4356,5.715 0,0.7366 -0.5842,1.5748 -1.9812,1.5748 -1.651,0 -2.667,-1.1938 -3.3528,-2.413 -0.127,-0.2286 -0.381,-0.1016 -0.3556,0.0762 l 0.254,2.3368 c 0.0254,0.2032 0.0762,0.254 0.2032,0.3048 1.1938,0.4318 2.6924,0.5842 3.5052,0.5842 2.4384,0 4.2164,-1.3462 4.2164,-3.4544 0,-3.7338 -5.4864,-3.683 -5.4864,-5.7912 0,-0.6858 0.6096,-1.2954 1.7526,-1.2954 z m 21.91808,2.2098 c 0,-1.778 -0.9144,-3.0988003 -2.7432,-3.0988003 -1.3208,0 -2.7432,0.7366003 -4.445,1.5748003 -0.381,-0.9652 -1.1684,-1.5748003 -2.3622,-1.5748003 -1.2446,0 -2.6162,0.7112003 -4.2164,1.5240003 V 9.9454617 c 0,-0.1016 -0.0508,-0.127 -0.1524,-0.1016 l -4.1402,0.8382003 c -0.1524,0.0254 -0.127,0.3556 0.0254,0.381 l 0.7366,0.1524 c 0.6604,0.127 0.9144,0.2794 0.9144,0.7112 v 7.7978 c 0,0.381 -0.1524,0.5842 -0.8128,0.7874 l -0.508,0.1524 c -0.381,0.127 -0.3302,0.4064 -0.2032,0.4064 h 5.6642 c 0.127,0 0.2032,-0.2794 -0.2286,-0.4064 l -0.4826,-0.1524 c -0.6604,-0.2032 -0.8128,-0.4064 -0.8128,-0.7874 v -7.3152 c 0.8636,-0.7112 1.905,-1.3208 2.8448,-1.3208 0.889,0 1.397,0.6604 1.397,2.0066 v 6.6294 c 0,0.381 -0.1524,0.5588 -0.8128,0.7874 l -0.508,0.1778 c -0.381,0.127 -0.3302,0.381 -0.2032,0.381 h 5.6642 c 0.127,0 0.2032,-0.2794 -0.2286,-0.4064 l -0.4826,-0.1524 c -0.6604,-0.2032 -0.8128,-0.4064 -0.8128,-0.7874 v -6.8834 c 0,-0.2032 0,-0.4064 -0.0254,-0.5842 0.8382,-0.5842 1.8796,-1.1684 2.8448,-1.1684 0.9398,0 1.4732,0.6604 1.4732,2.0066 v 6.6294 c 0,0.381 -0.1524,0.5588 -0.8128,0.7874 l -0.508,0.1778 c -0.381,0.127 -0.3302,0.381 -0.2032,0.381 h 5.6642 c 0.127,0 0.2032,-0.2794 -0.2286,-0.4064 l -0.4826,-0.1524 c -0.6604,-0.2032 -0.8128,-0.4064 -0.8128,-0.7874 z m 5.86529,-2.8956003 c 0,-0.1016 -0.0508,-0.127 -0.1524,-0.1016 l -4.11479,0.8382003 c -0.1524,0.0254 -0.127,0.3556 0.0254,0.381 l 0.7366,0.1524 c 0.6604,0.127 0.9144,0.2794 0.9144,0.7112 v 7.7978 c 0,0.381 -0.1524,0.5842 -0.8128,0.7874 l -0.508,0.1524 c -0.381,0.127 -0.3302,0.4064 -0.2032,0.4064 h 5.63879 c 0.127,0 0.2032,-0.2794 -0.2032,-0.4064 l -0.508,-0.1524 c -0.6604,-0.2032 -0.8128,-0.4064 -0.8128,-0.7874 z m -3.27659,-4.0893999 c -0.1524,0.1524 -0.1778,0.3048 0,0.4572 l 1.5748,1.4985999 c 0.1524,0.1524 0.2794,0.1524 0.4318,0 l 1.52399,-1.4985999 c 0.2032,-0.1778 0.1778,-0.2794 0,-0.4572 l -1.52399,-1.4986 c -0.1524,-0.1524 -0.2794,-0.1524 -0.4318,0 z m 6.67806,12.6746002 c 0,1.5748 0.9398,2.6416 2.5146,2.6416 1.4478,0 2.6924,-0.762 2.6924,-1.1176 0,-0.1016 -0.0508,-0.1778 -0.1524,-0.1778 -0.1524,0 -0.381,0.1524 -0.9398,0.1524 -0.8382,0 -1.524,-0.381 -1.524,-1.9558 v -7.3406 h 2.032 c 0.127,0 0.1778,-0.0508 0.1778,-0.1778 v -0.5334 c 0,-0.1270003 -0.0508,-0.1778003 -0.1778,-0.1778003 h -2.032 V 7.3546618 c 0,-0.1778 -0.1778,-0.3048 -0.3556,-0.3048 -0.1524,0 -0.3048,0.0762 -0.381,0.254 -0.4572,1.0667999 -0.7112,2.4891999 -3.1242,2.7432002 -0.381,0.0508 -0.381,0.6858 0,0.6858 h 1.27 z m 16.38088,-5.6896 c 0,-1.778 -1.016,-3.0988003 -3.0226,-3.0988003 -1.1938,0 -2.4892,0.5080003 -3.8354,1.1430003 V 2.8842618 c 0,-0.1016 -0.0508,-0.127 -0.1524,-0.1016 l -4.1402,0.8382 c -0.1524,0.0254 -0.127,0.3556 0.0254,0.381 l 0.7366,0.1524 c 0.6604,0.127 0.9144,0.2794 0.9144,0.7112 V 19.724462 c 0,0.381 -0.1524,0.5842 -0.8128,0.7874 l -0.508,0.1524 c -0.381,0.127 -0.3302,0.4064 -0.2032,0.4064 h 5.6642 c 0.127,0 0.2032,-0.2794 -0.2286,-0.4064 l -0.4826,-0.1524 c -0.6604,-0.2032 -0.8128,-0.4064 -0.8128,-0.7874 v -7.8232 c 0.7874,-0.4572 1.7018,-0.8128 2.54,-0.8128 1.0922,0 1.7018,0.6604 1.7018,2.0066 v 6.6294 c 0,0.381 -0.1524,0.5588 -0.8128,0.7874 l -0.508,0.1778 c -0.381,0.127 -0.3302,0.381 -0.2032,0.381 h 5.6642 c 0.127,0 0.2032,-0.2794 -0.2286,-0.4064 l -0.4826,-0.1524 c -0.6604,-0.2032 -0.8128,-0.4064 -0.8128,-0.7874 z"
       id="text1"
       aria-label="analytic talesmith" />
    <path
       style="font-size:9.87778px;font-family:'Red Hat Display';-inkscape-font-specification:'Red Hat Display';letter-spacing:0.105833px;stroke-width:0.264583"
       d="m 24.583638,32.675007 q -0.819855,0 -1.570567,-0.325967 -0.750711,-0.335844 -1.323622,-0.958144 l 0.503767,-0.523523 q 0.5334,0.572911 1.135944,0.859367 0.612423,0.286456 1.284112,0.286456 0.543278,0 0.958144,-0.167923 0.424745,-0.1778 0.661812,-0.484011 0.237066,-0.316089 0.237066,-0.7112 0,-0.5334 -0.375355,-0.819856 -0.365478,-0.286455 -1.214967,-0.424744 l -0.997656,-0.158045 q -0.997656,-0.167922 -1.471789,-0.592667 -0.474134,-0.424744 -0.474134,-1.1557 0,-0.572911 0.306212,-1.007533 0.306211,-0.434623 0.849489,-0.671689 0.553155,-0.246945 1.274233,-0.246945 0.730956,0 1.432278,0.237067 0.711201,0.237067 1.29399,0.681567 l -0.434623,0.592666 q -1.135944,-0.859366 -2.321278,-0.859366 -0.493889,0 -0.869245,0.158044 -0.375355,0.148167 -0.582789,0.424745 -0.207433,0.2667 -0.207433,0.632178 0,0.484011 0.325967,0.740833 0.325966,0.256822 1.076678,0.375356 l 0.987778,0.158044 q 1.135944,0.187678 1.649589,0.642056 0.513645,0.4445 0.513645,1.254478 0,0.602544 -0.335845,1.076678 -0.335845,0.464256 -0.938389,0.730956 -0.592667,0.256822 -1.373012,0.256822 z m 6.042385,-0.0099 q -0.701322,0 -1.274233,-0.335844 -0.572912,-0.345723 -0.908756,-0.928512 -0.335845,-0.582789 -0.335845,-1.303867 0,-0.721078 0.335845,-1.293989 0.335844,-0.582789 0.908756,-0.928511 0.572911,-0.345722 1.274233,-0.345722 0.543278,0 1.047045,0.207433 0.503767,0.197556 0.889,0.572911 l -0.464256,0.5334 q -0.296333,-0.316089 -0.681566,-0.474133 -0.375356,-0.167922 -0.780345,-0.167922 -0.503767,0 -0.918634,0.256822 -0.404989,0.246944 -0.651933,0.681567 -0.237067,0.424744 -0.237067,0.958144 0,0.5334 0.237067,0.968023 0.246944,0.434622 0.661811,0.691444 0.414867,0.246945 0.918634,0.246945 0.404989,0 0.760589,-0.158045 0.365478,-0.158044 0.681567,-0.464255 l 0.454377,0.493889 q -0.395111,0.375355 -0.889,0.582789 -0.493889,0.207433 -1.027289,0.207433 z m 2.881494,-0.0889 v -4.948768 h 0.730956 v 4.948768 z m 0.365478,-5.897035 q -0.197556,0 -0.345723,-0.148166 -0.148166,-0.148167 -0.148166,-0.3556 0,-0.197556 0.148166,-0.335845 0.148167,-0.148167 0.345723,-0.148167 0.207433,0 0.345722,0.148167 0.148167,0.138289 0.148167,0.345722 0,0.197556 -0.148167,0.345723 -0.138289,0.148166 -0.345722,0.148166 z m 4.037197,5.985935 q -0.7112,0 -1.293989,-0.335844 -0.572911,-0.345723 -0.918634,-0.928512 -0.335844,-0.582789 -0.335844,-1.303867 0,-0.7112 0.325967,-1.284111 0.325966,-0.582789 0.879122,-0.918634 0.553156,-0.345722 1.234723,-0.345722 0.661811,0 1.185333,0.345722 0.5334,0.335845 0.839612,0.918634 0.316088,0.572911 0.316088,1.284111 v 0.227189 h -4.059767 q 0.05927,0.484011 0.306211,0.869245 0.256822,0.385233 0.661811,0.612422 0.404989,0.217311 0.889001,0.217311 0.385233,0 0.750711,-0.118533 0.365478,-0.118533 0.612422,-0.335844 l 0.454378,0.484011 q -0.414867,0.306211 -0.869245,0.464255 -0.4445,0.148167 -0.9779,0.148167 z m -1.807634,-2.923823 h 3.309057 q -0.05927,-0.4445 -0.296334,-0.790222 -0.227189,-0.3556 -0.572911,-0.553156 -0.345722,-0.207433 -0.760589,-0.207433 -0.424744,0 -0.780345,0.197555 -0.3556,0.197556 -0.592666,0.553156 -0.237067,0.345722 -0.306212,0.8001 z m 5.163249,2.834923 v -4.948768 h 0.730956 v 0.582789 q 0.582789,-0.681566 1.560689,-0.681566 0.563034,0 0.987778,0.246944 0.434622,0.237067 0.671689,0.671689 0.246945,0.424745 0.246945,0.997656 v 3.131256 H 44.742786 V 29.59314 q 0,-0.661812 -0.375356,-1.037167 -0.365478,-0.385234 -1.007534,-0.385234 -0.4445,0 -0.790222,0.197556 -0.345722,0.197555 -0.572911,0.563033 v 3.644901 z m 7.820377,0.0889 q -0.701322,0 -1.274233,-0.335844 -0.572911,-0.345723 -0.908756,-0.928512 -0.335844,-0.582789 -0.335844,-1.303867 0,-0.721078 0.335844,-1.293989 0.335845,-0.582789 0.908756,-0.928511 0.572911,-0.345722 1.274233,-0.345722 0.543278,0 1.047045,0.207433 0.503767,0.197556 0.889,0.572911 l -0.464255,0.5334 q -0.296334,-0.316089 -0.681567,-0.474133 -0.375356,-0.167922 -0.780345,-0.167922 -0.503767,0 -0.918633,0.256822 -0.404989,0.246944 -0.651934,0.681567 -0.237067,0.424744 -0.237067,0.958144 0,0.5334 0.237067,0.968023 0.246945,0.434622 0.661811,0.691444 0.414867,0.246945 0.918634,0.246945 0.404989,0 0.760589,-0.158045 0.365478,-0.158044 0.681567,-0.464255 l 0.454378,0.493889 q -0.395111,0.375355 -0.889,0.582789 -0.493889,0.207433 -1.02729,0.207433 z m 5.05461,0 q -0.7112,0 -1.293989,-0.335844 -0.572911,-0.345723 -0.918633,-0.928512 -0.335845,-0.582789 -0.335845,-1.303867 0,-0.7112 0.325967,-1.284111 0.325967,-0.582789 0.879122,-0.918634 0.553156,-0.345722 1.234723,-0.345722 0.661811,0 1.185333,0.345722 0.533401,0.335845 0.839612,0.918634 0.316089,0.572911 0.316089,1.284111 v 0.227189 h -4.059768 q 0.05927,0.484011 0.306211,0.869245 0.256823,0.385233 0.661812,0.612422 0.404989,0.217311 0.889,0.217311 0.385233,0 0.750711,-0.118533 0.365478,-0.118533 0.612422,-0.335844 l 0.454378,0.484011 q -0.414866,0.306211 -0.869244,0.464255 -0.4445,0.148167 -0.977901,0.148167 z m -1.807633,-2.923823 h 3.309056 q -0.05927,-0.4445 -0.296333,-0.790222 -0.227189,-0.3556 -0.572912,-0.553156 -0.345722,-0.207433 -0.760589,-0.207433 -0.424744,0 -0.780344,0.197555 -0.3556,0.197556 -0.592667,0.553156 -0.237067,0.345722 -0.306211,0.8001 z m 8.301561,2.834923 -1.392767,-4.948768 h 0.721078 l 1.0668,3.951112 1.234723,-3.951112 h 0.651933 l 1.224845,3.951112 1.076678,-3.951112 h 0.691445 l -1.402645,4.948768 H 63.80549 l -1.224845,-3.96099 -1.234723,3.96099 z m 6.141148,0 v -4.948768 h 0.730956 v 4.948768 z m 0.365478,-5.897035 q -0.197555,0 -0.345722,-0.148166 -0.148167,-0.148167 -0.148167,-0.3556 0,-0.197556 0.148167,-0.335845 0.148167,-0.148167 0.345722,-0.148167 0.207434,0 0.345722,0.148167 0.148167,0.138289 0.148167,0.345722 0,0.197556 -0.148167,0.345723 -0.138288,0.148166 -0.345722,0.148166 z m 3.661843,5.995813 q -0.642056,0 -0.987778,-0.306211 -0.345722,-0.306211 -0.345722,-0.889 V 28.249761 H 68.40289 v -0.6223 h 1.066801 v -1.254478 l 0.721078,-0.187678 v 1.442156 h 1.491544 v 0.6223 h -1.491544 v 3.042357 q 0,0.395111 0.1778,0.572911 0.1778,0.167922 0.582789,0.167922 0.207433,0 0.365478,-0.02963 0.167922,-0.02963 0.3556,-0.09878 v 0.642056 q -0.187678,0.06914 -0.424745,0.09878 -0.227189,0.02963 -0.4445,0.02963 z m 1.765297,-0.09878 v -6.914446 l 0.730956,-0.167922 v 2.716389 q 0.582789,-0.681566 1.560689,-0.681566 0.563034,0 0.987778,0.246944 0.434622,0.237067 0.671689,0.671689 0.246945,0.424745 0.246945,0.997656 v 3.131256 H 76.045467 V 29.59314 q 0,-0.661812 -0.375356,-1.037167 -0.365478,-0.385234 -1.007534,-0.385234 -0.4445,0 -0.790222,0.197556 -0.345722,0.197555 -0.572911,0.563033 v 3.644901 z m 9.318979,0.0889 q -0.543278,0 -0.958145,-0.187678 -0.404989,-0.187678 -0.642056,-0.523522 -0.227189,-0.335845 -0.227189,-0.780345 0,-0.701322 0.533401,-1.106311 0.5334,-0.404989 1.442155,-0.404989 0.800101,0 1.452034,0.335845 v -0.651934 q 0,-0.592667 -0.335844,-0.889 -0.335845,-0.306211 -0.977901,-0.306211 -0.365478,0 -0.740833,0.108655 -0.365478,0.09878 -0.809978,0.325967 l -0.276578,-0.563033 q 0.5334,-0.256823 0.987778,-0.375356 0.454378,-0.118533 0.908756,-0.118533 0.938389,0 1.442156,0.4445 0.513644,0.4445 0.513644,1.274233 v 3.328812 h -0.7112 v -0.484011 q -0.335844,0.286455 -0.740833,0.434622 -0.395112,0.138289 -0.859367,0.138289 z m -1.126067,-1.5113 q 0,0.414867 0.345722,0.681567 0.3556,0.256822 0.908756,0.256822 0.4445,0 0.809978,-0.138289 0.365478,-0.138289 0.661811,-0.434622 v -0.928512 q -0.306211,-0.207433 -0.651933,-0.296333 -0.345723,-0.09878 -0.780345,-0.09878 -0.592667,0 -0.948267,0.2667 -0.345722,0.256822 -0.345722,0.691445 z m 9.378254,1.521178 q -0.819856,0 -1.570568,-0.325967 -0.750711,-0.335844 -1.323622,-0.958144 l 0.503767,-0.523523 q 0.5334,0.572911 1.135944,0.859367 0.612423,0.286456 1.284112,0.286456 0.543278,0 0.958144,-0.167923 0.424745,-0.1778 0.661812,-0.484011 0.237066,-0.316089 0.237066,-0.7112 0,-0.5334 -0.375355,-0.819856 -0.365478,-0.286455 -1.214967,-0.424744 l -0.997656,-0.158045 q -0.997656,-0.167922 -1.471789,-0.592667 -0.474134,-0.424744 -0.474134,-1.1557 0,-0.572911 0.306212,-1.007533 0.306211,-0.434623 0.849489,-0.671689 0.553155,-0.246945 1.274233,-0.246945 0.730956,0 1.432278,0.237067 0.711201,0.237067 1.29399,0.681567 l -0.434623,0.592666 q -1.135944,-0.859366 -2.321278,-0.859366 -0.493889,0 -0.869245,0.158044 -0.375355,0.148167 -0.582789,0.424745 -0.207433,0.2667 -0.207433,0.632178 0,0.484011 0.325967,0.740833 0.325966,0.256822 1.076678,0.375356 l 0.987778,0.158044 q 1.135944,0.187678 1.649589,0.642056 0.513645,0.4445 0.513645,1.254478 0,0.602544 -0.335845,1.076678 -0.335845,0.464256 -0.938389,0.730956 -0.592667,0.256822 -1.373011,0.256822 z m 6.052264,0 q -0.701322,0 -1.284112,-0.335845 -0.572911,-0.345722 -0.908755,-0.928511 -0.335845,-0.582789 -0.335845,-1.303867 0,-0.721078 0.335845,-1.303867 0.335844,-0.582789 0.908755,-0.918633 0.58279,-0.345723 1.284112,-0.345723 0.7112,0 1.284111,0.345723 0.572912,0.335844 0.908756,0.918633 0.335845,0.582789 0.335845,1.303867 0,0.721078 -0.335845,1.303867 -0.335844,0.582789 -0.908756,0.928511 -0.572911,0.335845 -1.284111,0.335845 z m 0,-0.651934 q 0.503767,0 0.908756,-0.256822 0.414866,-0.256822 0.651933,-0.691444 0.246945,-0.434623 0.246945,-0.968023 0,-0.543278 -0.246945,-0.968022 -0.237067,-0.434623 -0.651933,-0.691445 -0.404989,-0.256822 -0.908756,-0.256822 -0.503767,0 -0.918634,0.256822 -0.404989,0.256822 -0.651933,0.691445 -0.237067,0.424744 -0.237067,0.968022 0,0.5334 0.237067,0.968023 0.246944,0.434622 0.651933,0.691444 0.414867,0.256822 0.918634,0.256822 z m 5.548492,0.651934 q -0.56303,0 -0.99765,-0.237067 -0.43463,-0.246944 -0.68157,-0.671689 -0.237067,-0.434622 -0.237067,-1.007533 v -3.131257 h 0.721077 v 2.98309 q 0,0.661811 0.37536,1.047045 0.37535,0.375355 1.00753,0.375355 0.4445,0 0.79022,-0.197555 0.3556,-0.207434 0.57291,-0.572912 v -3.635023 h 0.73096 v 4.948768 h -0.73096 v -0.572911 q -0.58279,0.671689 -1.55081,0.671689 z m 3.6322,-0.09878 v -6.914446 l 0.73096,-0.167922 v 7.082368 z m 1.89372,1.353256 0.57291,-2.084212 h 0.79022 l -0.79022,2.084212 z m 5.8914,-2.044701 h 1.56069 q 0.60254,0 1.11619,-0.207433 0.51364,-0.207433 0.89887,-0.582789 0.38524,-0.375356 0.59267,-0.879122 0.21731,-0.503767 0.21731,-1.096434 0,-0.592667 -0.21731,-1.096433 -0.20743,-0.503767 -0.59267,-0.879123 -0.38523,-0.375356 -0.89887,-0.582789 -0.51365,-0.207433 -1.11619,-0.207433 h -1.56069 z m -0.76059,0.691445 v -6.914446 h 2.28177 q 0.79022,0 1.45203,0.256822 0.66181,0.256823 1.14582,0.721078 0.49389,0.464256 0.76059,1.096434 0.27658,0.632178 0.27658,1.382889 0,0.750711 -0.2667,1.382889 -0.2667,0.632178 -0.76059,1.096434 -0.48401,0.464256 -1.1557,0.721078 -0.66181,0.256822 -1.45203,0.256822 z m 8.54144,0.0889 q -0.54328,0 -0.95814,-0.187678 -0.40499,-0.187678 -0.64206,-0.523522 -0.22719,-0.335845 -0.22719,-0.780345 0,-0.701322 0.5334,-1.106311 0.5334,-0.404989 1.44216,-0.404989 0.8001,0 1.45203,0.335845 v -0.651934 q 0,-0.592667 -0.33584,-0.889 -0.33585,-0.306211 -0.9779,-0.306211 -0.36548,0 -0.74084,0.108655 -0.36548,0.09878 -0.80998,0.325967 l -0.27657,-0.563033 q 0.5334,-0.256823 0.98777,-0.375356 0.45438,-0.118533 0.90876,-0.118533 0.93839,0 1.44216,0.4445 0.51364,0.4445 0.51364,1.274233 v 3.328812 h -0.7112 v -0.484011 q -0.33584,0.286455 -0.74083,0.434622 -0.39511,0.138289 -0.85937,0.138289 z m -1.12607,-1.5113 q 0,0.414867 0.34573,0.681567 0.3556,0.256822 0.90875,0.256822 0.4445,0 0.80998,-0.138289 0.36548,-0.138289 0.66181,-0.434622 v -0.928512 q -0.30621,-0.207433 -0.65193,-0.296333 -0.34573,-0.09878 -0.78035,-0.09878 -0.59266,0 -0.94826,0.2667 -0.34573,0.256822 -0.34573,0.691445 z m 6.56592,1.521178 q -0.64205,0 -0.98778,-0.306211 -0.34572,-0.306211 -0.34572,-0.889 v -3.230035 h -1.0668 v -0.6223 h 1.0668 v -1.254478 l 0.72108,-0.187678 v 1.442156 h 1.49154 v 0.6223 h -1.49154 v 3.042357 q 0,0.395111 0.1778,0.572911 0.1778,0.167922 0.58279,0.167922 0.20743,0 0.36548,-0.02963 0.16792,-0.02963 0.3556,-0.09878 v 0.642056 q -0.18768,0.06914 -0.42475,0.09878 -0.22719,0.02963 -0.4445,0.02963 z m 3.32599,-0.0099 q -0.54328,0 -0.95815,-0.187678 -0.40499,-0.187678 -0.64205,-0.523522 -0.22719,-0.335845 -0.22719,-0.780345 0,-0.701322 0.5334,-1.106311 0.5334,-0.404989 1.44216,-0.404989 0.8001,0 1.45203,0.335845 v -0.651934 q 0,-0.592667 -0.33585,-0.889 -0.33584,-0.306211 -0.9779,-0.306211 -0.36547,0 -0.74083,0.108655 -0.36548,0.09878 -0.80998,0.325967 l -0.27658,-0.563033 q 0.5334,-0.256823 0.98778,-0.375356 0.45438,-0.118533 0.90876,-0.118533 0.93839,0 1.44215,0.4445 0.51365,0.4445 0.51365,1.274233 v 3.328812 h -0.7112 v -0.484011 q -0.33585,0.286455 -0.74083,0.434622 -0.39512,0.138289 -0.85937,0.138289 z m -1.12607,-1.5113 q 0,0.414867 0.34572,0.681567 0.3556,0.256822 0.90876,0.256822 0.4445,0 0.80998,-0.138289 0.36548,-0.138289 0.66181,-0.434622 v -0.928512 q -0.30621,-0.207433 -0.65193,-0.296333 -0.34573,-0.09878 -0.78035,-0.09878 -0.59267,0 -0.94827,0.2667 -0.34572,0.256822 -0.34572,0.691445 z m 7.90646,1.4224 -1.39276,-4.948768 h 0.72107 l 1.0668,3.951112 1.23473,-3.951112 h 0.65193 l 1.22484,3.951112 1.07668,-3.951112 h 0.69145 l -1.40265,4.948768 h -0.70132 l -1.22485,-3.96099 -1.23472,3.96099 z m 6.14115,0 v -4.948768 h 0.73096 v 4.948768 z m 0.36548,-5.897035 q -0.19756,0 -0.34572,-0.148166 -0.14817,-0.148167 -0.14817,-0.3556 0,-0.197556 0.14817,-0.335845 0.14816,-0.148167 0.34572,-0.148167 0.20743,0 0.34572,0.148167 0.14817,0.138289 0.14817,0.345722 0,0.197556 -0.14817,0.345723 -0.13829,0.148166 -0.34572,0.148166 z m 3.66184,5.995813 q -0.64205,0 -0.98778,-0.306211 -0.34572,-0.306211 -0.34572,-0.889 v -3.230035 h -1.0668 v -0.6223 h 1.0668 v -1.254478 l 0.72108,-0.187678 v 1.442156 h 1.49154 v 0.6223 h -1.49154 v 3.042357 q 0,0.395111 0.1778,0.572911 0.1778,0.167922 0.58279,0.167922 0.20743,0 0.36548,-0.02963 0.16792,-0.02963 0.3556,-0.09878 v 0.642056 q -0.18768,0.06914 -0.42475,0.09878 -0.22719,0.02963 -0.4445,0.02963 z m 1.7653,-0.09878 v -6.914446 l 0.73095,-0.167922 v 2.716389 q 0.58279,-0.681566 1.56069,-0.681566 0.56304,0 0.98778,0.246944 0.43462,0.237067 0.67169,0.671689 0.24694,0.424745 0.24694,0.997656 v 3.131256 h -0.72107 V 29.59314 q 0,-0.661812 -0.37536,-1.037167 -0.36548,-0.385234 -1.00753,-0.385234 -0.4445,0 -0.79022,0.197556 -0.34573,0.197555 -0.57292,0.563033 v 3.644901 z m 9.31897,0.0889 q -0.54328,0 -0.95814,-0.187678 -0.40499,-0.187678 -0.64206,-0.523522 -0.22719,-0.335845 -0.22719,-0.780345 0,-0.701322 0.5334,-1.106311 0.5334,-0.404989 1.44216,-0.404989 0.8001,0 1.45203,0.335845 v -0.651934 q 0,-0.592667 -0.33584,-0.889 -0.33585,-0.306211 -0.9779,-0.306211 -0.36548,0 -0.74083,0.108655 -0.36548,0.09878 -0.80998,0.325967 l -0.27658,-0.563033 q 0.5334,-0.256823 0.98778,-0.375356 0.45438,-0.118533 0.90875,-0.118533 0.93839,0 1.44216,0.4445 0.51364,0.4445 0.51364,1.274233 v 3.328812 h -0.7112 v -0.484011 q -0.33584,0.286455 -0.74083,0.434622 -0.39511,0.138289 -0.85937,0.138289 z m -1.12606,-1.5113 q 0,0.414867 0.34572,0.681567 0.3556,0.256822 0.90875,0.256822 0.4445,0 0.80998,-0.138289 0.36548,-0.138289 0.66181,-0.434622 v -0.928512 q -0.30621,-0.207433 -0.65193,-0.296333 -0.34572,-0.09878 -0.78034,-0.09878 -0.59267,0 -0.94827,0.2667 -0.34572,0.256822 -0.34572,0.691445 z m 9.37826,1.521178 q -0.81985,0 -1.57057,-0.325967 -0.75071,-0.335844 -1.32362,-0.958144 l 0.50377,-0.523523 q 0.5334,0.572911 1.13594,0.859367 0.61243,0.286456 1.28411,0.286456 0.54328,0 0.95815,-0.167923 0.42474,-0.1778 0.66181,-0.484011 0.23707,-0.316089 0.23707,-0.7112 0,-0.5334 -0.37536,-0.819856 -0.36548,-0.286455 -1.21497,-0.424744 l -0.99765,-0.158045 q -0.99766,-0.167922 -1.47179,-0.592667 -0.47413,-0.424744 -0.47413,-1.1557 0,-0.572911 0.30621,-1.007533 0.30621,-0.434623 0.84949,-0.671689 0.55315,-0.246945 1.27423,-0.246945 0.73096,0 1.43228,0.237067 0.7112,0.237067 1.29399,0.681567 l -0.43463,0.592666 q -1.13594,-0.859366 -2.32127,-0.859366 -0.49389,0 -0.86925,0.158044 -0.37535,0.148167 -0.58279,0.424745 -0.20743,0.2667 -0.20743,0.632178 0,0.484011 0.32597,0.740833 0.32596,0.256822 1.07667,0.375356 l 0.98778,0.158044 q 1.13595,0.187678 1.64959,0.642056 0.51365,0.4445 0.51365,1.254478 0,0.602544 -0.33585,1.076678 -0.33584,0.464256 -0.93839,0.730956 -0.59266,0.256822 -1.37301,0.256822 z m 5.44972,0 q -0.64206,0 -0.98778,-0.306211 -0.34572,-0.306211 -0.34572,-0.889 v -3.230035 h -1.0668 v -0.6223 h 1.0668 v -1.254478 l 0.72107,-0.187678 v 1.442156 h 1.49155 v 0.6223 h -1.49155 v 3.042357 q 0,0.395111 0.1778,0.572911 0.1778,0.167922 0.58279,0.167922 0.20744,0 0.36548,-0.02963 0.16792,-0.02963 0.3556,-0.09878 v 0.642056 q -0.18768,0.06914 -0.42474,0.09878 -0.22719,0.02963 -0.4445,0.02963 z m 3.96804,0 q -0.70132,0 -1.28411,-0.335845 -0.57291,-0.345722 -0.90876,-0.928511 -0.33584,-0.582789 -0.33584,-1.303867 0,-0.721078 0.33584,-1.303867 0.33585,-0.582789 0.90876,-0.918633 0.58279,-0.345723 1.28411,-0.345723 0.7112,0 1.28411,0.345723 0.57291,0.335844 0.90876,0.918633 0.33584,0.582789 0.33584,1.303867 0,0.721078 -0.33584,1.303867 -0.33585,0.582789 -0.90876,0.928511 -0.57291,0.335845 -1.28411,0.335845 z m 0,-0.651934 q 0.50377,0 0.90876,-0.256822 0.41486,-0.256822 0.65193,-0.691444 0.24694,-0.434623 0.24694,-0.968023 0,-0.543278 -0.24694,-0.968022 -0.23707,-0.434623 -0.65193,-0.691445 -0.40499,-0.256822 -0.90876,-0.256822 -0.50377,0 -0.91863,0.256822 -0.40499,0.256822 -0.65194,0.691445 -0.23706,0.424744 -0.23706,0.968022 0,0.5334 0.23706,0.968023 0.24695,0.434622 0.65194,0.691444 0.41486,0.256822 0.91863,0.256822 z m 3.65197,0.553156 v -4.948768 h 0.73095 v 0.701323 q 0.22719,-0.385234 0.57291,-0.592667 0.3556,-0.217311 0.80998,-0.217311 0.25682,0 0.46426,0.06914 v 0.671689 q -0.12841,-0.04939 -0.25682,-0.06914 -0.12842,-0.01976 -0.25683,-0.01976 -0.45437,0 -0.8001,0.2667 -0.33584,0.256823 -0.5334,0.750712 v 3.388078 z m 3.82976,2.113845 q -0.13829,0 -0.2667,-0.01976 -0.11853,-0.0099 -0.19755,-0.02963 v -0.661811 q 0.16792,0.03951 0.41486,0.03951 0.65194,0 0.98778,-0.770467 l 0.29633,-0.681567 -2.01506,-4.93889 h 0.80997 l 1.6002,4.059768 1.72862,-4.059768 h 0.79022 l -2.46945,5.719235 q -0.20743,0.474133 -0.4445,0.770467 -0.23706,0.296333 -0.54327,0.434622 -0.29634,0.138289 -0.69145,0.138289 z"
       id="text3"
       aria-label="Science with a Soul, Data with a Story" />
  </g>
</svg>
